<svg xmlns="http://www.w3.org/2000/svg" viewBox="-600 -600 1200 1200" width="1200" height="1200"><rect x="-600" y="-600" width="1200" height="1200" fill="#111827"/><path d="M-827.5 -711.9L-823.7 -705.8L-243.9 118.7L-238.5 126.4" fill="none" stroke="#facc15" stroke-width="2" stroke-linecap="round"/>
<path d="M-828.6 -711.1L-824.8 -705.0L-245.0 119.6L-239.6 127.3" fill="none" stroke="#facc15" stroke-width="2" stroke-linecap="round"/>
<path d="M-837.8 -704.4L-833.9 -698.0L-253.9 126.8L-248.5 134.5" fill="none" stroke="#e5e7eb" stroke-width="1.6" stroke-dasharray="10 8" stroke-linecap="round"/>
<path d="M-847.6 -697.3L-843.5 -690.6L-263.3 134.5L-257.9 142.2" fill="none" stroke="#e5e7eb" stroke-width="1.6" stroke-dasharray="10 8" stroke-linecap="round"/>
<path d="M-818.2 -718.6L-814.6 -712.8L-235.0 111.5L-229.6 119.2" fill="none" stroke="#e5e7eb" stroke-width="1.6" stroke-dasharray="10 8" stroke-linecap="round"/>
<path d="M-808.4 -725.7L-805.0 -720.2L-225.6 103.8L-220.2 111.5" fill="none" stroke="#e5e7eb" stroke-width="1.6" stroke-dasharray="10 8" stroke-linecap="round"/>
<path d="M563.2 317.2L426.4 534.7" fill="none" stroke="#facc15" stroke-width="2" stroke-linecap="round"/>
<path d="M366.5 652.8L176.2 777.4" fill="none" stroke="#facc15" stroke-width="2" stroke-linecap="round"/>
<path d="M-269.9 745.6L-432.0 935.6L-582.6 1075.8" fill="none" stroke="#facc15" stroke-width="2" stroke-linecap="round"/>
<path d="M331.5 182.5L243.4 345.3" fill="none" stroke="#facc15" stroke-width="2" stroke-linecap="round"/>
<path d="M208.5 382.0L21.8 492.5" fill="none" stroke="#facc15" stroke-width="2" stroke-linecap="round"/>
<path d="M248.5 387.4L394.6 538.0" fill="none" stroke="#facc15" stroke-width="2" stroke-linecap="round"/>
<path d="M430.4 576.0L562.6 720.2" fill="none" stroke="#facc15" stroke-width="2" stroke-linecap="round"/>
<path d="M846.6 455.3L595.5 309.3" fill="none" stroke="#facc15" stroke-width="2" stroke-linecap="round"/>
<path d="M555.5 286.0L362.6 173.9" fill="none" stroke="#facc15" stroke-width="2" stroke-linecap="round"/>
<path d="M322.4 150.8L13.3 -25.1" fill="none" stroke="#facc15" stroke-width="2" stroke-linecap="round"/>
<path d="M-31.8 1045.1L-238.0 747.2" fill="none" stroke="#facc15" stroke-width="2" stroke-linecap="round"/>
<path d="M-267.6 703.7L-277.1 689.4" fill="none" stroke="#facc15" stroke-width="2" stroke-linecap="round"/>
<path d="M-303.6 651.7L-377.2 552.1" fill="none" stroke="#facc15" stroke-width="2" stroke-linecap="round"/>
<path d="M744.5 622.7L597.9 725.1" fill="none" stroke="#facc15" stroke-width="2" stroke-linecap="round"/>
<path d="M559.4 750.9L406.9 849.7" fill="none" stroke="#facc15" stroke-width="2" stroke-linecap="round"/>
<path d="M365.3 874.0L254.2 931.7" fill="none" stroke="#facc15" stroke-width="2" stroke-linecap="round"/>
<path d="M1198.2 -244.6L365.3 -698.8" fill="none" stroke="#facc15" stroke-width="2" stroke-linecap="round"/>
<path d="M10.9 -995.8L205.1 -823.8L231.3 -800.6L241.9 -791.2" fill="none" stroke="#facc15" stroke-width="2" stroke-linecap="round"/>
<path d="M-137.9 290.0L-133.0 298.8L-108.4 339.1L-32.4 469.4" fill="none" stroke="#facc15" stroke-width="2" stroke-linecap="round"/>
<path d="M-139.0 290.7L-134.1 299.5L-109.6 339.9L-33.5 470.2" fill="none" stroke="#facc15" stroke-width="2" stroke-linecap="round"/>
<path d="M-148.6 296.8L-143.6 305.9L-118.9 346.4L-42.9 476.6" fill="none" stroke="#e5e7eb" stroke-width="1.6" stroke-dasharray="10 8" stroke-linecap="round"/>
<path d="M-128.3 283.8L-123.5 292.4L-99.1 332.7L-22.9 463.0" fill="none" stroke="#e5e7eb" stroke-width="1.6" stroke-dasharray="10 8" stroke-linecap="round"/>
<path d="M3.2 530.9L63.3 638.9" fill="none" stroke="#facc15" stroke-width="2" stroke-linecap="round"/>
<path d="M2.1 531.6L62.1 639.6" fill="none" stroke="#facc15" stroke-width="2" stroke-linecap="round"/>
<path d="M-7.5 537.8L52.5 645.8" fill="none" stroke="#e5e7eb" stroke-width="1.6" stroke-dasharray="10 8" stroke-linecap="round"/>
<path d="M12.8 524.7L72.8 632.7" fill="none" stroke="#e5e7eb" stroke-width="1.6" stroke-dasharray="10 8" stroke-linecap="round"/>
<path d="M80.0 670.0L134.1 774.7" fill="none" stroke="#facc15" stroke-width="2" stroke-linecap="round"/>
<path d="M78.8 670.7L133.0 775.4" fill="none" stroke="#facc15" stroke-width="2" stroke-linecap="round"/>
<path d="M69.1 676.6L123.2 781.2" fill="none" stroke="#e5e7eb" stroke-width="1.6" stroke-dasharray="10 8" stroke-linecap="round"/>
<path d="M89.7 664.2L143.9 768.8" fill="none" stroke="#e5e7eb" stroke-width="1.6" stroke-dasharray="10 8" stroke-linecap="round"/>
<path d="M157.5 820.2L191.1 886.6L212.6 927.6" fill="none" stroke="#facc15" stroke-width="2" stroke-linecap="round"/>
<path d="M156.3 820.9L189.9 887.3L211.5 928.3" fill="none" stroke="#facc15" stroke-width="2" stroke-linecap="round"/>
<path d="M146.5 826.6L180.2 893.2L201.8 934.3" fill="none" stroke="#e5e7eb" stroke-width="1.6" stroke-dasharray="10 8" stroke-linecap="round"/>
<path d="M167.2 814.4L200.9 880.8L222.4 921.7" fill="none" stroke="#e5e7eb" stroke-width="1.6" stroke-dasharray="10 8" stroke-linecap="round"/>
<path d="M492.3 -1096.0L359.4 -845.5L327.9 -786.1L317.1 -765.8" fill="none" stroke="#facc15" stroke-width="2" stroke-linecap="round"/>
<path d="M491.1 -1096.8L358.2 -846.3L326.7 -786.8L316.0 -766.5" fill="none" stroke="#facc15" stroke-width="2" stroke-linecap="round"/>
<path d="M481.4 -1102.7L348.6 -852.2L317.1 -792.8L306.3 -772.4" fill="none" stroke="#e5e7eb" stroke-width="1.6" stroke-dasharray="10 8" stroke-linecap="round"/>
<path d="M502.0 -1090.1L369.1 -839.6L337.6 -780.2L326.8 -759.8" fill="none" stroke="#e5e7eb" stroke-width="1.6" stroke-dasharray="10 8" stroke-linecap="round"/>
<path d="M-270.8 657.7L-50.8 511.0" fill="none" stroke="#facc15" stroke-width="2" stroke-linecap="round"/>
<path d="M457.4 -715.9L630.7 -1039.5" fill="none" stroke="#facc15" stroke-width="2" stroke-linecap="round"/>
<path d="M-208.7 255.8L-224.8 282.6L-245.2 307.8L-404.7 472.8" fill="none" stroke="#facc15" stroke-width="2" stroke-linecap="round"/>
<path d="M-209.8 255.0L-225.9 281.7L-246.1 306.8L-405.6 471.7" fill="none" stroke="#facc15" stroke-width="2" stroke-linecap="round"/>
<path d="M-219.2 248.5L-234.8 274.5L-254.2 298.5L-413.3 463.1" fill="none" stroke="#e5e7eb" stroke-width="1.6" stroke-dasharray="10 8" stroke-linecap="round"/>
<path d="M-199.4 262.3L-215.9 289.8L-237.1 316.0L-396.9 481.4" fill="none" stroke="#e5e7eb" stroke-width="1.6" stroke-dasharray="10 8" stroke-linecap="round"/>
<path d="M-441.7 510.9L-753.3 830.5L-772.4 850.1L-786.6 864.7" fill="none" stroke="#facc15" stroke-width="2" stroke-linecap="round"/>
<path d="M-442.6 509.9L-754.2 829.5L-773.3 849.0L-787.5 863.6" fill="none" stroke="#facc15" stroke-width="2" stroke-linecap="round"/>
<path d="M-450.3 501.2L-761.9 820.8L-781.0 840.4L-795.2 854.9" fill="none" stroke="#e5e7eb" stroke-width="1.6" stroke-dasharray="10 8" stroke-linecap="round"/>
<path d="M-434.0 519.6L-745.6 839.2L-764.7 858.8L-778.9 873.4" fill="none" stroke="#e5e7eb" stroke-width="1.6" stroke-dasharray="10 8" stroke-linecap="round"/>
<path d="M292.0 -717.5L281.9 -697.8L261.8 -658.6L-34.5 -79.4" fill="none" stroke="#facc15" stroke-width="2" stroke-linecap="round"/>
<path d="M290.8 -718.2L280.7 -698.5L260.7 -659.3L-35.6 -80.1" fill="none" stroke="#facc15" stroke-width="2" stroke-linecap="round"/>
<path d="M281.0 -724.0L271.0 -704.3L250.9 -665.0L-45.4 -85.9" fill="none" stroke="#e5e7eb" stroke-width="1.6" stroke-dasharray="10 8" stroke-linecap="round"/>
<path d="M301.7 -711.7L291.7 -692.0L271.6 -652.8L-24.7 -73.7" fill="none" stroke="#e5e7eb" stroke-width="1.6" stroke-dasharray="10 8" stroke-linecap="round"/>
<path d="M-56.2 -36.9L-106.5 61.4L-149.9 146.3L-160.6 167.8" fill="none" stroke="#facc15" stroke-width="2" stroke-linecap="round"/>
<path d="M-57.4 -37.6L-107.7 60.7L-151.1 145.6L-161.8 167.1" fill="none" stroke="#facc15" stroke-width="2" stroke-linecap="round"/>
<path d="M-67.1 -43.4L-117.4 54.9L-160.9 139.9L-171.6 161.4" fill="none" stroke="#e5e7eb" stroke-width="1.6" stroke-dasharray="10 8" stroke-linecap="round"/>
<path d="M-46.4 -31.1L-96.7 67.2L-140.1 152.0L-150.8 173.4" fill="none" stroke="#e5e7eb" stroke-width="1.6" stroke-dasharray="10 8" stroke-linecap="round"/>
<path d="M-191.6 114.2L-200.9 109.5L-195.5 98.8L-186.2 103.5L-191.6 114.2Z" fill="none" stroke="#ffffff" stroke-width="1.5" fill-rule="evenodd"/>
<circle cx="-193.6" cy="106.5" r="2" fill="#38bdf8"/>
<text x="-188.6" y="109.5" font-size="9" fill="#38bdf8">moto-box-motorcycle</text>
<path d="M-32.8 473.6L-52.9 485.2L-58.9 474.8L-38.8 463.2L-32.8 473.6Z" fill="none" stroke="#ffffff" stroke-width="1.5" fill-rule="evenodd"/>
<circle cx="-40.8" cy="471.3" r="2" fill="#38bdf8"/>
<text x="-35.8" y="474.3" font-size="9" fill="#38bdf8">moto-box-motorcycle</text>
<circle cx="-50.9" cy="477.1" r="2" fill="#38bdf8"/>
<text x="-45.9" y="480.1" font-size="9" fill="#38bdf8">moto-box-bicycle</text>
<path d="M3.0 528.2L23.4 517.0L29.2 527.5L8.8 538.7L3.0 528.2Z" fill="none" stroke="#ffffff" stroke-width="1.5" fill-rule="evenodd"/>
<circle cx="11.0" cy="530.7" r="2" fill="#38bdf8"/>
<text x="16.0" y="533.7" font-size="9" fill="#38bdf8">moto-box-motorcycle</text>
<circle cx="21.2" cy="525.1" r="2" fill="#38bdf8"/>
<text x="26.2" y="528.1" font-size="9" fill="#38bdf8">moto-box-bicycle</text>
<path d="M134.0 779.7L113.3 790.3L107.8 779.6L128.5 769.0L134.0 779.7Z" fill="none" stroke="#ffffff" stroke-width="1.5" fill-rule="evenodd"/>
<circle cx="126.1" cy="777.0" r="2" fill="#38bdf8"/>
<text x="131.1" y="780.0" font-size="9" fill="#38bdf8">moto-box-motorcycle</text>
<circle cx="115.7" cy="782.3" r="2" fill="#38bdf8"/>
<text x="120.7" y="785.3" font-size="9" fill="#38bdf8">moto-box-bicycle</text>
<path d="M211.2 930.3L190.7 941.0L185.1 930.4L205.7 919.6L211.2 930.3Z" fill="none" stroke="#ffffff" stroke-width="1.5" fill-rule="evenodd"/>
<circle cx="203.3" cy="927.6" r="2" fill="#38bdf8"/>
<text x="208.3" y="930.6" font-size="9" fill="#38bdf8">moto-box-motorcycle</text>
<circle cx="193.0" cy="933.0" r="2" fill="#38bdf8"/>
<text x="198.0" y="936.0" font-size="9" fill="#38bdf8">moto-box-bicycle</text>
<path d="M156.4 815.6L177.1 805.2L182.5 815.9L161.8 826.4L156.4 815.6Z" fill="none" stroke="#ffffff" stroke-width="1.5" fill-rule="evenodd"/>
<circle cx="164.3" cy="818.4" r="2" fill="#38bdf8"/>
<text x="169.3" y="821.4" font-size="9" fill="#38bdf8">moto-box-motorcycle</text>
<circle cx="174.6" cy="813.2" r="2" fill="#38bdf8"/>
<text x="179.6" y="816.2" font-size="9" fill="#38bdf8">moto-box-bicycle</text>
<path d="M-167.3 239.7L-146.5 227.0" fill="none" stroke="#ffffff" stroke-width="5" stroke-linecap="round"/>
<path d="M423.6 538.0L413.7 531.9" fill="none" stroke="#ffffff" stroke-width="5" stroke-linecap="round"/>
<path d="M566.3 313.5L576.1 319.6" fill="none" stroke="#ffffff" stroke-width="5" stroke-linecap="round"/>
<path d="M172.2 779.3L165.8 769.6" fill="none" stroke="#ffffff" stroke-width="5" stroke-linecap="round"/>
<path d="M-266.6 742.7L-257.8 750.2" fill="none" stroke="#ffffff" stroke-width="5" stroke-linecap="round"/>
<path d="M240.8 348.9L230.6 343.4" fill="none" stroke="#ffffff" stroke-width="5" stroke-linecap="round"/>
<path d="M334.2 178.9L344.4 184.4" fill="none" stroke="#ffffff" stroke-width="5" stroke-linecap="round"/>
<path d="M17.8 494.2L11.8 484.3" fill="none" stroke="#ffffff" stroke-width="5" stroke-linecap="round"/>
<path d="M215.1 378.8L221.1 388.7" fill="none" stroke="#ffffff" stroke-width="5" stroke-linecap="round"/>
<path d="M399.4 543.8L391.1 551.9" fill="none" stroke="#ffffff" stroke-width="5" stroke-linecap="round"/>
<path d="M245.9 383.8L254.3 375.7" fill="none" stroke="#ffffff" stroke-width="5" stroke-linecap="round"/>
<path d="M565.1 723.9L556.5 731.7" fill="none" stroke="#ffffff" stroke-width="5" stroke-linecap="round"/>
<path d="M425.5 569.7L434.0 561.9" fill="none" stroke="#ffffff" stroke-width="5" stroke-linecap="round"/>
<path d="M592.0 306.6L597.9 296.6" fill="none" stroke="#ffffff" stroke-width="5" stroke-linecap="round"/>
<path d="M358.7 171.0L364.6 160.9" fill="none" stroke="#ffffff" stroke-width="5" stroke-linecap="round"/>
<path d="M559.0 288.8L553.1 298.8" fill="none" stroke="#ffffff" stroke-width="5" stroke-linecap="round"/>
<path d="M326.2 153.7L320.5 163.7" fill="none" stroke="#ffffff" stroke-width="5" stroke-linecap="round"/>
<path d="M-242.0 740.4L-232.4 733.8" fill="none" stroke="#ffffff" stroke-width="5" stroke-linecap="round"/>
<path d="M-279.1 685.3L-269.4 678.9" fill="none" stroke="#ffffff" stroke-width="5" stroke-linecap="round"/>
<path d="M-263.6 710.8L-273.3 717.2" fill="none" stroke="#ffffff" stroke-width="5" stroke-linecap="round"/>
<path d="M-301.5 655.6L-310.8 662.4" fill="none" stroke="#ffffff" stroke-width="5" stroke-linecap="round"/>
<path d="M-404.1 515.7L-394.9 508.6" fill="none" stroke="#ffffff" stroke-width="5" stroke-linecap="round"/>
<path d="M593.8 727.2L587.1 717.7" fill="none" stroke="#ffffff" stroke-width="5" stroke-linecap="round"/>
<path d="M590.4 752.8L599.8 746.0" fill="none" stroke="#ffffff" stroke-width="5" stroke-linecap="round"/>
<path d="M402.8 851.6L396.5 841.9" fill="none" stroke="#ffffff" stroke-width="5" stroke-linecap="round"/>
<path d="M563.9 748.7L570.3 758.4" fill="none" stroke="#ffffff" stroke-width="5" stroke-linecap="round"/>
<path d="M369.5 872.5L374.9 882.7" fill="none" stroke="#ffffff" stroke-width="5" stroke-linecap="round"/>
<path d="M278.7 -760.6L271.7 -751.4" fill="none" stroke="#ffffff" stroke-width="5" stroke-linecap="round"/>
<path d="M-191.7 116.9L-202.0 111.7" fill="none" stroke="#ffffff" stroke-width="5" stroke-linecap="round"/>
<path d="M-404.5 547.8L-399.0 553.1" fill="none" stroke="#ffffff" stroke-width="5" stroke-linecap="round"/>
<path d="M-174.5 289.4L-168.2 293.6" fill="none" stroke="#ffffff" stroke-width="5" stroke-linecap="round"/>
<path d="M-30.4 475.4L-51.5 487.6" fill="none" stroke="#ffffff" stroke-width="5" stroke-linecap="round"/>
<path d="M0.6 526.4L22.0 514.6" fill="none" stroke="#ffffff" stroke-width="5" stroke-linecap="round"/>
<path d="M136.3 781.6L114.6 792.8" fill="none" stroke="#ffffff" stroke-width="5" stroke-linecap="round"/>
<path d="M154.1 813.7L175.9 802.7" fill="none" stroke="#ffffff" stroke-width="5" stroke-linecap="round"/>
<path d="M-200.6 187.2L-221.6 199.6" fill="none" stroke="#ffffff" stroke-width="5" stroke-linecap="round"/>
<path d="M269.1 -793.0L262.5 -796.6" fill="none" stroke="#ffffff" stroke-width="5" stroke-linecap="round"/>
<path d="M314.0 -762.5L292.4 -773.9" fill="none" stroke="#ffffff" stroke-width="5" stroke-linecap="round"/>
<path d="M-46.8 509.1L-40.3 518.7" fill="none" stroke="#ffffff" stroke-width="5" stroke-linecap="round"/>
<path d="M-274.8 659.7L-281.2 650.0" fill="none" stroke="#ffffff" stroke-width="5" stroke-linecap="round"/>
<path d="M-408.6 475.0L-426.2 458.1" fill="none" stroke="#ffffff" stroke-width="5" stroke-linecap="round"/>
<path d="M-206.5 252.0L-185.6 264.5" fill="none" stroke="#ffffff" stroke-width="5" stroke-linecap="round"/>
<path d="M-438.7 507.7L-421.1 524.7" fill="none" stroke="#ffffff" stroke-width="5" stroke-linecap="round"/>
<path d="M-13.5 -18.8L-6.7 -15.4" fill="none" stroke="#ffffff" stroke-width="5" stroke-linecap="round"/>
<path d="M338.5 -692.3L345.2 -688.9" fill="none" stroke="#ffffff" stroke-width="5" stroke-linecap="round"/>
<path d="M329.1 -723.9L336.1 -733.1" fill="none" stroke="#ffffff" stroke-width="5" stroke-linecap="round"/>
<path d="M-37.6 -76.2L-59.3 -87.2" fill="none" stroke="#ffffff" stroke-width="5" stroke-linecap="round"/>
<path d="M293.9 -721.5L315.7 -710.4" fill="none" stroke="#ffffff" stroke-width="5" stroke-linecap="round"/>
<path d="M-163.7 171.1L-185.6 160.3" fill="none" stroke="#ffffff" stroke-width="5" stroke-linecap="round"/>
<path d="M-54.3 -40.9L-32.5 -29.9" fill="none" stroke="#ffffff" stroke-width="5" stroke-linecap="round"/>
<circle cx="-239.8" cy="137.0" r="2" fill="#38bdf8"/>
<text x="-234.8" y="140.0" font-size="9" fill="#38bdf8">lane-arrow-left-through</text>
<circle cx="-250.3" cy="144.3" r="2" fill="#38bdf8"/>
<text x="-245.3" y="147.3" font-size="9" fill="#38bdf8">lane-arrow-through</text>
<circle cx="-260.8" cy="151.6" r="2" fill="#38bdf8"/>
<text x="-255.8" y="154.6" font-size="9" fill="#38bdf8">lane-arrow-through-right</text>
<circle cx="-182.0" cy="85.2" r="2" fill="#38bdf8"/>
<text x="-177.0" y="88.2" font-size="9" fill="#38bdf8">lane-arrow-through-right</text>
<circle cx="-412.9" cy="561.9" r="2" fill="#38bdf8"/>
<text x="-407.9" y="564.9" font-size="9" fill="#38bdf8">lane-arrow-through-right-dual</text>
<circle cx="-180.1" cy="304.8" r="2" fill="#38bdf8"/>
<text x="-175.1" y="307.8" font-size="9" fill="#38bdf8">lane-arrow-through-right-dual</text>
<circle cx="-51.9" cy="450.1" r="2" fill="#38bdf8"/>
<text x="-46.9" y="453.1" font-size="9" fill="#38bdf8">lane-arrow-left-through</text>
<circle cx="-62.9" cy="456.5" r="2" fill="#38bdf8"/>
<text x="-57.9" y="459.5" font-size="9" fill="#38bdf8">lane-arrow-through-right</text>
<circle cx="-133.8" cy="285.4" r="2" fill="#38bdf8"/>
<text x="-128.8" y="288.4" font-size="9" fill="#38bdf8">lane-arrow-left-through</text>
<circle cx="-122.6" cy="279.3" r="2" fill="#38bdf8"/>
<text x="-117.6" y="282.3" font-size="9" fill="#38bdf8">lane-arrow-through-right</text>
<circle cx="51.9" cy="633.1" r="2" fill="#38bdf8"/>
<text x="56.9" y="636.1" font-size="9" fill="#38bdf8">lane-arrow-left-through</text>
<circle cx="40.7" cy="639.3" r="2" fill="#38bdf8"/>
<text x="45.7" y="642.3" font-size="9" fill="#38bdf8">lane-arrow-through-right</text>
<circle cx="21.6" cy="552.1" r="2" fill="#38bdf8"/>
<text x="26.6" y="555.1" font-size="9" fill="#38bdf8">lane-arrow-left-through</text>
<circle cx="32.8" cy="545.9" r="2" fill="#38bdf8"/>
<text x="37.8" y="548.9" font-size="9" fill="#38bdf8">lane-arrow-through-right</text>
<circle cx="116.1" cy="755.3" r="2" fill="#38bdf8"/>
<text x="121.1" y="758.3" font-size="9" fill="#38bdf8">lane-arrow-left-through</text>
<circle cx="104.8" cy="761.1" r="2" fill="#38bdf8"/>
<text x="109.8" y="764.1" font-size="9" fill="#38bdf8">lane-arrow-through-right</text>
<circle cx="89.6" cy="676.2" r="2" fill="#38bdf8"/>
<text x="94.6" y="679.2" font-size="9" fill="#38bdf8">lane-arrow-left-through</text>
<circle cx="101.0" cy="670.3" r="2" fill="#38bdf8"/>
<text x="106.0" y="673.3" font-size="9" fill="#38bdf8">lane-arrow-through-right</text>
<circle cx="193.3" cy="906.0" r="2" fill="#38bdf8"/>
<text x="198.3" y="909.0" font-size="9" fill="#38bdf8">lane-arrow-left-through</text>
<circle cx="181.9" cy="911.9" r="2" fill="#38bdf8"/>
<text x="186.9" y="914.9" font-size="9" fill="#38bdf8">lane-arrow-through-right</text>
<circle cx="174.0" cy="840.2" r="2" fill="#38bdf8"/>
<text x="179.0" y="843.2" font-size="9" fill="#38bdf8">lane-arrow-left-through</text>
<circle cx="185.4" cy="834.5" r="2" fill="#38bdf8"/>
<text x="190.4" y="837.5" font-size="9" fill="#38bdf8">lane-arrow-through-right</text>
<circle cx="273.4" cy="-808.8" r="2" fill="#38bdf8"/>
<text x="278.4" y="-805.8" font-size="9" fill="#38bdf8">lane-arrow-through-right-dual</text>
<circle cx="316.3" cy="-779.3" r="2" fill="#38bdf8"/>
<text x="321.3" y="-776.3" font-size="9" fill="#38bdf8">lane-arrow-left-through</text>
<circle cx="305.0" cy="-785.3" r="2" fill="#38bdf8"/>
<text x="310.0" y="-782.3" font-size="9" fill="#38bdf8">lane-arrow-through</text>
<circle cx="-401.7" cy="459.5" r="2" fill="#38bdf8"/>
<text x="-396.7" y="462.5" font-size="9" fill="#38bdf8">lane-arrow-left-through</text>
<circle cx="-410.9" cy="450.6" r="2" fill="#38bdf8"/>
<text x="-405.9" y="453.6" font-size="9" fill="#38bdf8">lane-arrow-through</text>
<circle cx="-209.7" cy="268.6" r="2" fill="#38bdf8"/>
<text x="-204.7" y="271.6" font-size="9" fill="#38bdf8">lane-arrow-left-through</text>
<circle cx="-198.7" cy="275.2" r="2" fill="#38bdf8"/>
<text x="-193.7" y="278.2" font-size="9" fill="#38bdf8">lane-arrow-through</text>
<circle cx="-445.6" cy="523.1" r="2" fill="#38bdf8"/>
<text x="-440.6" y="526.1" font-size="9" fill="#38bdf8">lane-arrow-through</text>
<circle cx="-436.4" cy="532.1" r="2" fill="#38bdf8"/>
<text x="-431.4" y="535.1" font-size="9" fill="#38bdf8">lane-arrow-through</text>
<circle cx="-17.3" cy="-2.9" r="2" fill="#38bdf8"/>
<text x="-12.3" y="0.1" font-size="9" fill="#38bdf8">lane-arrow-through-right-dual</text>
<circle cx="334.6" cy="-676.4" r="2" fill="#38bdf8"/>
<text x="339.6" y="-673.4" font-size="9" fill="#38bdf8">lane-arrow-through-right-dual</text>
<circle cx="-35.5" cy="-93.0" r="2" fill="#38bdf8"/>
<text x="-30.5" y="-90.0" font-size="9" fill="#38bdf8">lane-arrow-left-through</text>
<circle cx="-46.9" cy="-98.8" r="2" fill="#38bdf8"/>
<text x="-41.9" y="-95.8" font-size="9" fill="#38bdf8">lane-arrow-through</text>
<circle cx="291.8" cy="-704.7" r="2" fill="#38bdf8"/>
<text x="296.8" y="-701.7" font-size="9" fill="#38bdf8">lane-arrow-left-through</text>
<circle cx="303.3" cy="-698.9" r="2" fill="#38bdf8"/>
<text x="308.3" y="-695.9" font-size="9" fill="#38bdf8">lane-arrow-through</text>
<circle cx="-161.8" cy="154.2" r="2" fill="#38bdf8"/>
<text x="-156.8" y="157.2" font-size="9" fill="#38bdf8">lane-arrow-left-through</text>
<circle cx="-173.3" cy="148.6" r="2" fill="#38bdf8"/>
<text x="-168.3" y="151.6" font-size="9" fill="#38bdf8">lane-arrow-through</text>
<circle cx="-56.3" cy="-24.1" r="2" fill="#38bdf8"/>
<text x="-51.3" y="-21.1" font-size="9" fill="#38bdf8">lane-arrow-through</text>
<circle cx="-44.9" cy="-18.3" r="2" fill="#38bdf8"/>
<text x="-39.9" y="-15.3" font-size="9" fill="#38bdf8">lane-arrow-through</text>
<circle cx="319.1" cy="-757.3" r="1.5" fill="#facc15"/>
<circle cx="330.4" cy="-751.4" r="1.5" fill="#facc15"/>
<circle cx="-215.8" cy="253.8" r="1.5" fill="#facc15"/>
<circle cx="-226.7" cy="247.2" r="1.5" fill="#facc15"/>
<circle cx="-404.8" cy="481.1" r="1.5" fill="#facc15"/>
<circle cx="-395.5" cy="490.0" r="1.5" fill="#facc15"/>
<circle cx="-442.5" cy="501.6" r="1.5" fill="#facc15"/>
<circle cx="-451.7" cy="492.7" r="1.5" fill="#facc15"/>
<circle cx="288.9" cy="-726.9" r="1.5" fill="#facc15"/>
<circle cx="277.4" cy="-732.7" r="1.5" fill="#facc15"/>
<circle cx="-30.9" cy="-73.9" r="1.5" fill="#facc15"/>
<circle cx="-19.5" cy="-68.1" r="1.5" fill="#facc15"/>
<circle cx="-60.9" cy="-43.2" r="1.5" fill="#facc15"/>
<circle cx="-72.3" cy="-49.0" r="1.5" fill="#facc15"/>
<circle cx="-155.8" cy="171.0" r="1.5" fill="#facc15"/>
<circle cx="-144.3" cy="176.6" r="1.5" fill="#facc15"/>
<circle cx="-184.1" cy="213.6" r="2.5" fill="#f472b6"/>
<text x="-179.1" y="216.6" font-size="9" fill="#f472b6">way/85272559@b/7472962181</text>
<circle cx="575.5" cy="297.7" r="2.5" fill="#f472b6"/>
<text x="580.5" y="300.7" font-size="9" fill="#f472b6">way/217146866@b/2264471264</text>
<circle cx="255.4" cy="544.2" r="2.5" fill="#f472b6"/>
<text x="260.4" y="547.2" font-size="9" fill="#f472b6">way/217146876@b/2264471250</text>
<circle cx="366.5" cy="652.8" r="2.5" fill="#f472b6"/>
<text x="371.5" y="655.8" font-size="9" fill="#f472b6">way/217146882@b/2264471240</text>
<circle cx="-252.9" cy="725.7" r="2.5" fill="#f472b6"/>
<text x="-247.9" y="728.7" font-size="9" fill="#f472b6">way/217146887@b/2264471238</text>
<circle cx="386.1" cy="863.1" r="2.5" fill="#f472b6"/>
<text x="391.1" y="866.1" font-size="9" fill="#f472b6">way/217146908@b/2264471232</text>
<circle cx="342.5" cy="162.2" r="2.5" fill="#f472b6"/>
<text x="347.5" y="165.2" font-size="9" fill="#f472b6">way/217146911@b/2264471273</text>
<circle cx="230.6" cy="368.9" r="2.5" fill="#f472b6"/>
<text x="235.6" y="371.9" font-size="9" fill="#f472b6">way/217146911@b/2264471261</text>
<circle cx="230.6" cy="368.9" r="2.5" fill="#f472b6"/>
<text x="235.6" y="371.9" font-size="9" fill="#f472b6">way/217146931@b/2264471261</text>
<circle cx="412.6" cy="556.6" r="2.5" fill="#f472b6"/>
<text x="417.6" y="559.6" font-size="9" fill="#f472b6">way/217146931@b/2264471249</text>
<circle cx="575.5" cy="297.7" r="2.5" fill="#f472b6"/>
<text x="580.5" y="300.7" font-size="9" fill="#f472b6">way/217146937@b/2264471264</text>
<circle cx="342.5" cy="162.2" r="2.5" fill="#f472b6"/>
<text x="347.5" y="165.2" font-size="9" fill="#f472b6">way/217146937@b/2264471273</text>
<circle cx="-1.7" cy="-33.6" r="2.5" fill="#f472b6"/>
<text x="3.3" y="-30.6" font-size="9" fill="#f472b6">way/217146937@b/2388124359</text>
<circle cx="-252.9" cy="725.7" r="2.5" fill="#f472b6"/>
<text x="-247.9" y="728.7" font-size="9" fill="#f472b6">way/217146953@b/2264471238</text>
<circle cx="-289.8" cy="670.4" r="2.5" fill="#f472b6"/>
<text x="-284.8" y="673.4" font-size="9" fill="#f472b6">way/217146953@b/11065383761</text>
<circle cx="-388.4" cy="537.0" r="2.5" fill="#f472b6"/>
<text x="-383.4" y="540.0" font-size="9" fill="#f472b6">way/217146953@b/2264471252</text>
<circle cx="579.0" cy="738.2" r="2.5" fill="#f472b6"/>
<text x="584.0" y="741.2" font-size="9" fill="#f472b6">way/230290171@b/2264471237</text>
<circle cx="579.0" cy="738.2" r="2.5" fill="#f472b6"/>
<text x="584.0" y="741.2" font-size="9" fill="#f472b6">way/230290173@b/2264471237</text>
<circle cx="386.1" cy="863.1" r="2.5" fill="#f472b6"/>
<text x="391.1" y="866.1" font-size="9" fill="#f472b6">way/230290173@b/2264471232</text>
<circle cx="256.7" cy="-778.1" r="2.5" fill="#f472b6"/>
<text x="261.7" y="-775.1" font-size="9" fill="#f472b6">way/271982130@b/2264426952</text>
<circle cx="350.3" cy="-707.0" r="2.5" fill="#f472b6"/>
<text x="355.3" y="-704.0" font-size="9" fill="#f472b6">way/271982156@b/2264426949</text>
<circle cx="256.7" cy="-778.1" r="2.5" fill="#f472b6"/>
<text x="261.7" y="-775.1" font-size="9" fill="#f472b6">way/271982158@b/2264426952</text>
<circle cx="-218.2" cy="156.4" r="2.5" fill="#f472b6"/>
<text x="-213.2" y="159.4" font-size="9" fill="#f472b6">way/271982158@b/988779668</text>
<circle cx="-388.4" cy="537.0" r="2.5" fill="#f472b6"/>
<text x="-383.4" y="540.0" font-size="9" fill="#f472b6">way/281341695@b/2264471252</text>
<circle cx="-153.1" cy="263.8" r="2.5" fill="#f472b6"/>
<text x="-148.1" y="266.8" font-size="9" fill="#f472b6">way/297139353@b/12469016040</text>
<circle cx="-20.6" cy="490.9" r="2.5" fill="#f472b6"/>
<text x="-15.6" y="493.9" font-size="9" fill="#f472b6">way/297139353@b/12469016039</text>
<circle cx="-8.8" cy="510.7" r="2.5" fill="#f472b6"/>
<text x="-3.8" y="513.7" font-size="9" fill="#f472b6">way/297139353@b/2264471253</text>
<circle cx="71.1" cy="654.4" r="2.5" fill="#f472b6"/>
<text x="76.1" y="657.4" font-size="9" fill="#f472b6">way/297139353@b/2264471241</text>
<circle cx="145.3" cy="797.6" r="2.5" fill="#f472b6"/>
<text x="150.3" y="800.6" font-size="9" fill="#f472b6">way/297139353@b/2264471235</text>
<circle cx="-218.2" cy="156.4" r="2.5" fill="#f472b6"/>
<text x="-213.2" y="159.4" font-size="9" fill="#f472b6">way/297139354@b/988779668</text>
<circle cx="-289.8" cy="670.4" r="2.5" fill="#f472b6"/>
<text x="-284.8" y="673.4" font-size="9" fill="#f472b6">way/1191883385@b/11065383761</text>
<circle cx="457.4" cy="-715.9" r="2.5" fill="#f472b6"/>
<text x="462.4" y="-712.9" font-size="9" fill="#f472b6">way/1191883387@b/11065383768</text>
<circle cx="-184.1" cy="213.6" r="2.5" fill="#f472b6"/>
<text x="-179.1" y="216.6" font-size="9" fill="#f472b6">way/1446434013@b/7472962181</text>
<circle cx="-423.6" cy="491.4" r="2.5" fill="#f472b6"/>
<text x="-418.6" y="494.4" font-size="9" fill="#f472b6">way/1446434013@b/7473019236</text>
<circle cx="-153.1" cy="263.8" r="2.5" fill="#f472b6"/>
<text x="-148.1" y="266.8" font-size="9" fill="#f472b6">way/1446434014@b/12469016040</text>
<circle cx="-1.7" cy="-33.6" r="2.5" fill="#f472b6"/>
<text x="3.3" y="-30.6" font-size="9" fill="#f472b6">way/1446434014@b/2388124359</text>
<circle cx="303.9" cy="-742.3" r="2.5" fill="#f472b6"/>
<text x="308.9" y="-739.3" font-size="9" fill="#f472b6">way/1464614130@b/7472962180</text>
<circle cx="303.9" cy="-742.3" r="2.5" fill="#f472b6"/>
<text x="308.9" y="-739.3" font-size="9" fill="#f472b6">way/1464614131@b/7472962180</text>
<circle cx="-45.9" cy="-58.5" r="2.5" fill="#f472b6"/>
<text x="-40.9" y="-55.5" font-size="9" fill="#f472b6">way/1464614131@b/2264471279</text></svg>